<?xml version="1.0" standalone="no"?>
<!DOCTYPE svg PUBLIC "-//W3C//DTD SVG 20010904//EN"
 "http://www.w3.org/TR/2001/REC-SVG-20010904/DTD/svg10.dtd">
<svg version="1.0" xmlns="http://www.w3.org/2000/svg"
 width="800.000000pt" height="800.000000pt" viewBox="0 0 800.000000 800.000000"
 preserveAspectRatio="xMidYMid meet">
<metadata>
Created by potrace 1.11, written by Peter Selinger 2001-2013
</metadata>
<g transform="translate(0.000000,800.000000) scale(0.100000,-0.100000)"
fill="#000000" stroke="none">
<path d="M1519 4925 c-151 -48 -249 -194 -237 -349 14 -168 145 -294 317 -304
106 -6 176 21 252 97 76 76 103 146 97 252 -8 132 -76 233 -196 290 -60 28
-168 35 -233 14z"/>
<path d="M6319 4925 c-151 -48 -249 -194 -237 -349 14 -168 145 -294 317 -304
106 -6 176 21 252 97 76 76 103 146 97 252 -8 132 -76 233 -196 290 -60 28
-168 35 -233 14z"/>
<path d="M3076 3419 c-73 -63 -57 -141 43 -208 303 -206 683 -312 1004 -281
264 25 523 121 767 282 52 34 68 51 78 82 16 50 2 96 -41 132 -47 39 -100 30
-202 -33 -190 -119 -378 -191 -570 -218 -82 -11 -264 -7 -355 9 -164 29 -348
104 -529 215 -103 63 -142 67 -195 20z"/>
</g>
</svg>
